name analog
datacolumns 19
datarows 29
range 0.312 0.326
endheader
time	ground_force_vx	ground_force_vy	ground_force_vz	ground_force_px	ground_force_py	ground_force_pz	l_ground_force_vx	l_ground_force_vy	l_ground_force_vz	l_ground_force_px	l_ground_force_py	l_ground_force_pz	ground_torque_x	ground_torque_y	ground_torque_z	l_ground_torque_x	l_ground_torque_y	l_ground_torque_z
0.312	-0.0	-0.0	-0.0	-0.0	-0.0	-0.0	-6.387176513671875	-5.815624237060547	-803.3978271484375	-0.0	-0.0	-0.0	-0.0	-0.0	-0.0	278718.46875	-23534.35546875	-3714.02490234375
0.3125	-0.0	-0.0	-0.0	-0.0	-0.0	-0.0	-7.704098701477051	-6.270839691162109	-802.404541015625	-0.0	-0.0	-0.0	-0.0	-0.0	-0.0	278509.3125	-23083.880859375	-4111.99560546875
0.313	-0.0	-0.0	-0.0	-0.0	-0.0	-0.0	-8.71342658996582	-6.569215297698975	-803.5606079101562	-0.0	-0.0	-0.0	-0.0	-0.0	-0.0	278740.6875	-22428.365234375	-4388.92236328125
0.3135	-0.0	-0.0	-0.0	-0.0	-0.0	-0.0	-9.286931037902832	-6.099778652191162	-802.1868896484375	-0.0	-0.0	-0.0	-0.0	-0.0	-0.0	279017.46875	-22406.134765625	-4751.64404296875
0.314	-0.0	-0.0	-0.0	-0.0	-0.0	-0.0	-10.426109313964844	-5.178098201751709	-802.11083984375	-0.0	-0.0	-0.0	-0.0	-0.0	-0.0	279453.0	-21847.46484375	-5026.60791015625
0.3145	-0.0	-0.0	-0.0	-0.0	-0.0	-0.0	-10.617354393005373	-4.885509490966797	-801.3579711914062	-0.0	-0.0	-0.0	-0.0	-0.0	-0.0	279366.46875	-21558.240234375	-5409.283203125
0.315	-0.0	-0.0	-0.0	-0.0	-0.0	-0.0	-10.705921173095703	-4.2813825607299805	-801.302978515625	-0.0	-0.0	-0.0	-0.0	-0.0	-0.0	279781.375	-21361.01171875	-5610.50927734375
0.3155	-0.0	-0.0	-0.0	-0.0	-0.0	-0.0	-11.3226318359375	-4.048768997192383	-800.6046142578125	-0.0	-0.0	-0.0	-0.0	-0.0	-0.0	279792.21875	-20599.263671875	-5859.00244140625
0.316	-0.0	-0.0	-0.0	-0.0	-0.0	-0.0	-12.139225959777832	-3.0874719619750977	-798.0492553710938	-0.0	-0.0	-0.0	-0.0	-0.0	-0.0	279879.90625	-20128.263671875	-6238.86572265625
0.3165	-0.0	-0.0	-0.0	-0.0	-0.0	-0.0	-12.93755054473877	-2.222203254699707	-797.350341796875	-0.0	-0.0	-0.0	-0.0	-0.0	-0.0	279689.0	-19728.35546875	-6774.29345703125
0.317	-0.0	-0.0	-0.0	-0.0	-0.0	-0.0	-13.721628189086914	-1.7380149364471436	-794.6690673828125	-0.0	-0.0	-0.0	-0.0	-0.0	-0.0	279673.28125	-19335.154296875	-7224.36376953125
0.3175	-0.0	-0.0	-0.0	-0.0	-0.0	-0.0	-14.190959930419922	-0.6210052967071533	-793.8471069335938	-0.0	-0.0	-0.0	-0.0	-0.0	-0.0	279883.46875	-19061.234375	-7718.11083984375
0.318	-0.0	-0.0	-0.0	-0.0	-0.0	-0.0	-14.963336944580078	0.7948951721191406	-794.2066650390625	-0.0	-0.0	-0.0	-0.0	-0.0	-0.0	280260.46875	-18822.607421875	-7885.84912109375
0.3185	-0.0	-0.0	-0.0	-0.0	-0.0	-0.0	-14.637279510498049	1.930668950080872	-791.8680419921875	-0.0	-0.0	-0.0	-0.0	-0.0	-0.0	280590.21875	-18951.455078125	-8078.5390625
0.319	-0.0	-0.0	-0.0	-0.0	-0.0	-0.0	-14.356621742248535	2.089247226715088	-790.9998779296875	-0.0	-0.0	-0.0	-0.0	-0.0	-0.0	280315.34375	-18936.25	-8028.6845703125
0.3195	-0.0	-0.0	-0.0	-0.0	-0.0	-0.0	-14.17915153503418	2.840804100036621	-791.0054931640625	-0.0	-0.0	-0.0	-0.0	-0.0	-0.0	280383.28125	-18859.599609375	-8122.2666015625
0.32	-0.0	-0.0	-0.0	-0.0	-0.0	-0.0	-13.719999313354492	3.3707945346832275	-789.1402587890625	-0.0	-0.0	-0.0	-0.0	-0.0	-0.0	280463.15625	-19095.966796875	-8206.2666015625
0.3205	-0.0	-0.0	-0.0	-0.0	-0.0	-0.0	-13.676167488098145	3.709510803222656	-787.2211303710938	-0.0	-0.0	-0.0	-0.0	-0.0	-0.0	280663.5625	-18997.18359375	-8022.9931640625
0.321	-0.0	-0.0	-0.0	-0.0	-0.0	-0.0	-13.380573272705078	4.51927375793457	-787.8021850585938	-0.0	-0.0	-0.0	-0.0	-0.0	-0.0	281180.40625	-19009.412109375	-8156.0517578125
0.3215	-0.0	-0.0	-0.0	-0.0	-0.0	-0.0	-13.070318222045898	5.196423053741455	-789.7802124023438	-0.0	-0.0	-0.0	-0.0	-0.0	-0.0	282057.65625	-19146.958984375	-8126.07958984375
0.322	-0.0	-0.0	-0.0	-0.0	-0.0	-0.0	-13.143465042114258	5.9762282371521	-789.6661376953125	-0.0	-0.0	-0.0	-0.0	-0.0	-0.0	282696.34375	-19190.130859375	-8274.1416015625
0.3225	-0.0	-0.0	-0.0	-0.0	-0.0	-0.0	-12.300925254821776	7.094571590423584	-791.699462890625	-0.0	-0.0	-0.0	-0.0	-0.0	-0.0	283219.59375	-19704.125	-8243.5595703125
0.323	-0.0	-0.0	-0.0	-0.0	-0.0	-0.0	-12.834389686584473	8.050878524780273	-793.21337890625	-0.0	-0.0	-0.0	-0.0	-0.0	-0.0	284135.9375	-19511.7265625	-8239.0791015625
0.3235	-0.0	-0.0	-0.0	-0.0	-0.0	-0.0	-12.77598762512207	8.640533447265625	-794.0828857421875	-0.0	-0.0	-0.0	-0.0	-0.0	-0.0	284786.53125	-19507.333984375	-8461.689453125
0.324	-0.0	-0.0	-0.0	-0.0	-0.0	-0.0	-13.276381492614746	9.331995010375977	-793.62158203125	-0.0	-0.0	-0.0	-0.0	-0.0	-0.0	285352.03125	-19940.9375	-8678.4150390625
0.3245	-0.0	-0.0	-0.0	-0.0	-0.0	-0.0	-13.70460033416748	9.818830490112305	-794.0305786132812	-0.0	-0.0	-0.0	-0.0	-0.0	-0.0	285666.6875	-20062.146484375	-8797.9677734375
0.325	-0.0	-0.0	-0.0	-0.0	-0.0	-0.0	-13.334373474121094	10.921545028686523	-794.9689331054688	-0.0	-0.0	-0.0	-0.0	-0.0	-0.0	286255.1875	-20225.8203125	-8717.74609375
0.3255	-0.0	-0.0	-0.0	-0.0	-0.0	-0.0	-12.64283561706543	11.393497467041016	-794.8497314453125	-0.0	-0.0	-0.0	-0.0	-0.0	-0.0	286604.53125	-20538.55078125	-8652.6484375
0.326	-0.0	-0.0	-0.0	-0.0	-0.0	-0.0	-11.887245178222656	11.393497467041016	-796.8711547851562	-0.0	-0.0	-0.0	-0.0	-0.0	-0.0	286913.28125	-20977.318359375	-8330.875
